# xmcd
#
# Track frame offsets:
#	183
#	26703
#	49295
#	68565
#	90298
#	110983
#	139058
#	157703
#	181793
#	198370
#	229600
#
# Disc length: 3312 seconds
#
# Revision: 0
# Processed by: cddbd v1.5.2PL0 Copyright (c) Steve Scherf et al.
# Submitted via: audiograbber 1.83.01
#
DISCID=870cee0b
DTITLE=Stefan Waggershausen - Louisiana
DYEAR=1995
DGENRE=Cajun
TTITLE0=Ich schieß Dir die Sterne
TTITLE1=Wer war heut Nacht hier
TTITLE2=Huckleberry Finn
TTITLE3=Ich ras in freiem Fall (auf so etwas wie Liebe zu)
TTITLE4=Louisiana
TTITLE5=Händler des Todes
TTITLE6=Linda Paloma
TTITLE7=Wenn Du mich heut sehen würdest
TTITLE8=Aquarium
TTITLE9=Der schwarze Prinz
TTITLE10=Wanderherz
EXTD=
EXTT0=
EXTT1=
EXTT2=
EXTT3=
EXTT4=
EXTT5=
EXTT6=
EXTT7=
EXTT8=
EXTT9=
EXTT10=
PLAYORDER=
